<svg width="64" height="64" viewBox="0 0 64 64" fill="none" xmlns="http://www.w3.org/2000/svg">
  <!-- Phoenix-inspired logo with academic tools -->
  <!-- Upper wings -->
  <path d="M32 8 L28 18 L24 22 L20 20 L18 14 L20 10 Z" fill="#800000"/>
  <path d="M32 8 L36 18 L40 22 L44 20 L46 14 L44 10 Z" fill="#800000"/>

  <!-- Phoenix head/body -->
  <ellipse cx="32" cy="24" rx="6" ry="8" fill="#5c0000"/>
  <circle cx="30" cy="22" r="1.5" fill="#c8102e"/>
  <circle cx="34" cy="22" r="1.5" fill="#c8102e"/>

  <!-- Tools arrangement (pen, calculator, ruler) -->
  <!-- Pen on left -->
  <rect x="20" y="28" width="3" height="18" fill="#c8102e" transform="rotate(-25 21.5 37)"/>
  <path d="M18 43 L20 45 L22 43 Z" fill="#800000"/>

  <!-- Calculator in center -->
  <rect x="29" y="32" width="10" height="14" rx="1" fill="#a6192e"/>
  <rect x="30" y="34" width="3" height="2" rx="0.5" fill="#f5f5f5"/>
  <rect x="34" y="34" width="3" height="2" rx="0.5" fill="#f5f5f5"/>
  <rect x="30" y="37" width="3" height="2" rx="0.5" fill="#f5f5f5"/>
  <rect x="34" y="37" width="3" height="2" rx="0.5" fill="#f5f5f5"/>
  <rect x="30" y="40" width="7" height="4" rx="0.5" fill="#f5f5f5"/>

  <!-- Ruler on right -->
  <rect x="41" y="28" width="3" height="18" fill="#c8102e" transform="rotate(25 42.5 37)"/>
  <line x1="41" y1="30" x2="44" y2="30" stroke="#f5f5f5" stroke-width="0.5"/>
  <line x1="41" y1="33" x2="44" y2="33" stroke="#f5f5f5" stroke-width="0.5"/>
  <line x1="41" y1="36" x2="44" y2="36" stroke="#f5f5f5" stroke-width="0.5"/>

  <!-- Flame effect at bottom -->
  <path d="M32 48 Q28 52 26 56 Q28 54 32 54 Q36 54 38 56 Q36 52 32 48 Z" fill="#ff6b35"/>
  <path d="M32 50 Q30 53 29 56 Q30 54 32 54 Q34 54 35 56 Q34 53 32 50 Z" fill="#ffa500"/>
  <path d="M32 52 Q31 54 30.5 56 Q31 54.5 32 54.5 Q33 54.5 33.5 56 Q33 54 32 52 Z" fill="#ffed4e"/>

  <!-- Lower wing spreads -->
  <path d="M24 30 L16 36 L14 40 L16 42 L22 38 Z" fill="#800000" opacity="0.8"/>
  <path d="M40 30 L48 36 L50 40 L48 42 L42 38 Z" fill="#800000" opacity="0.8"/>
</svg>
